<?xml version="1.0" encoding="UTF-8"?>
<svg xmlns="http://www.w3.org/2000/svg" xmlns:xlink="http://www.w3.org/1999/xlink" width="191.81pt" height="158.82pt" viewBox="0 0 191.81 158.82" version="1.1">
<defs>
<clipPath id="clip1">
  <path d="M 0 23 L 182 23 L 182 158.820313 L 0 158.820313 Z M 0 23 "/>
</clipPath>
<clipPath id="clip2">
  <path d="M 0 0 L 191.808594 0 L 191.808594 156 L 0 156 Z M 0 0 "/>
</clipPath>
</defs>
<g id="surface1">
<g clip-path="url(#clip1)" clip-rule="nonzero">
<path style=" stroke:none;fill-rule:evenodd;fill:rgb(90.19928%,90.59906%,90.99884%);fill-opacity:1;" d="M 181.898438 124.101563 C 182.90625 135.117188 174.839844 144.839844 163.898438 145.917969 L 29.761719 158.734375 C 18.746094 159.742188 9.023438 151.679688 7.945313 140.734375 L 0.0976563 57.933594 C -0.984375 46.992188 7.082031 37.199219 18.023438 36.191406 L 152.160156 23.375 C 163.175781 22.296875 172.898438 30.359375 173.976563 41.304688 "/>
</g>
<g clip-path="url(#clip2)" clip-rule="nonzero">
<path style=" stroke:none;fill-rule:evenodd;fill:rgb(0%,58.399963%,85.499573%);fill-opacity:1;" d="M 191.113281 95.085938 C 193.992188 105.742188 187.730469 116.6875 177.074219 119.566406 L 46.96875 154.703125 C 36.3125 157.582031 25.367188 151.246094 22.488281 140.589844 L 0.816406 60.3125 C -2.0625 49.726563 4.199219 38.710938 14.855469 35.832031 L 144.960938 0.695313 C 155.617188 -2.183594 166.5625 4.152344 169.441406 14.808594 "/>
</g>
<path style=" stroke:none;fill-rule:evenodd;fill:rgb(100%,100%,100%);fill-opacity:1;" d="M 178.296875 71.902344 C 189.671875 100.992188 187.730469 111.789063 155.832031 120.429688 C 155.832031 120.429688 188.882813 109.847656 178.296875 71.902344 "/>
<path style=" stroke:none;fill-rule:evenodd;fill:rgb(100%,100%,100%);fill-opacity:1;" d="M 170.160156 98.832031 C 170.160156 99.625 170.015625 100.269531 169.730469 100.773438 C 169.367188 101.351563 168.722656 101.78125 167.855469 102.070313 C 166.847656 102.359375 165.410156 102.503906 163.609375 102.503906 L 154.105469 102.503906 C 153.457031 102.503906 153.167969 102.214844 153.167969 101.566406 L 153.167969 101.277344 C 153.167969 100.632813 153.457031 100.269531 154.105469 100.269531 L 163.609375 100.269531 C 164.976563 100.269531 166.058594 100.128906 166.632813 99.839844 C 167.136719 99.625 167.425781 99.261719 167.425781 98.902344 L 167.425781 97.535156 C 167.425781 97.03125 167.066406 96.671875 166.488281 96.382813 C 165.839844 96.167969 164.90625 96.023438 163.609375 96.023438 L 160.007813 96.023438 C 157.632813 96.023438 155.90625 95.734375 154.753906 95.085938 C 153.671875 94.511719 153.097656 93.648438 153.097656 92.496094 L 153.097656 91.34375 C 153.097656 90.046875 153.527344 89.183594 154.464844 88.535156 C 155.472656 87.886719 157.273438 87.527344 159.722656 87.527344 L 169.082031 87.527344 C 169.730469 87.527344 170.015625 87.816406 170.015625 88.464844 L 170.015625 88.75 C 170.015625 89.398438 169.730469 89.757813 169.082031 89.757813 L 159.722656 89.757813 C 158.496094 89.757813 157.5625 89.902344 156.914063 90.117188 C 156.191406 90.335938 155.832031 90.765625 155.832031 91.34375 L 155.832031 92.351563 C 155.832031 92.855469 156.191406 93.285156 156.769531 93.429688 C 157.417969 93.648438 158.496094 93.792969 159.9375 93.792969 L 163.609375 93.792969 C 165.695313 93.792969 167.28125 94.078125 168.433594 94.800781 C 169.585938 95.445313 170.160156 96.3125 170.160156 97.464844 Z M 150.074219 101.566406 C 150.074219 102.214844 149.714844 102.503906 149.066406 102.503906 L 148.273438 102.503906 C 147.625 102.503906 147.265625 102.214844 147.265625 101.566406 L 147.265625 91.847656 L 139.199219 101.78125 C 138.984375 102.070313 138.769531 102.285156 138.480469 102.429688 C 138.191406 102.574219 137.832031 102.574219 137.472656 102.574219 C 137.183594 102.574219 136.824219 102.574219 136.535156 102.429688 C 136.25 102.285156 135.960938 102.070313 135.746094 101.78125 L 127.609375 91.773438 L 127.609375 101.566406 C 127.609375 102.214844 127.25 102.503906 126.601563 102.503906 L 125.808594 102.503906 C 125.160156 102.503906 124.871094 102.214844 124.871094 101.566406 L 124.871094 88.96875 C 124.871094 88.535156 125.015625 88.246094 125.304688 87.960938 C 125.664063 87.671875 126.023438 87.527344 126.457031 87.527344 C 126.746094 87.527344 126.960938 87.597656 127.25 87.742188 C 127.535156 87.816406 127.753906 88.03125 127.96875 88.320313 L 137.546875 99.695313 L 146.90625 88.246094 C 147.121094 88.03125 147.335938 87.886719 147.625 87.742188 C 147.914063 87.671875 148.199219 87.597656 148.5625 87.597656 C 148.992188 87.597656 149.351563 87.671875 149.570313 87.886719 C 149.855469 88.175781 150.074219 88.535156 150.074219 89.039063 Z M 121.847656 88.75 C 121.847656 89.398438 121.5625 89.757813 120.914063 89.757813 L 111.121094 89.757813 C 110.328125 89.757813 109.753906 89.757813 109.320313 89.832031 C 108.960938 89.902344 108.601563 90.046875 108.242188 90.261719 C 107.808594 90.550781 107.59375 90.839844 107.59375 91.199219 L 107.59375 98.613281 C 107.59375 98.976563 107.738281 99.261719 107.953125 99.550781 C 108.242188 99.765625 108.601563 99.910156 109.175781 100.128906 C 109.394531 100.128906 109.753906 100.199219 110.113281 100.269531 L 120.839844 100.269531 C 121.488281 100.269531 121.777344 100.632813 121.777344 101.277344 L 121.777344 101.566406 C 121.777344 102.214844 121.488281 102.503906 120.839844 102.503906 L 109.898438 102.503906 C 109.535156 102.503906 109.105469 102.429688 108.816406 102.429688 C 108.167969 102.285156 107.519531 102.070313 106.800781 101.640625 C 106.152344 101.277344 105.648438 100.917969 105.359375 100.488281 C 105 99.984375 104.855469 99.40625 104.855469 98.6875 L 104.855469 91.199219 C 104.855469 90.335938 105.21875 89.613281 105.9375 88.96875 C 106.65625 88.320313 107.664063 87.886719 108.816406 87.671875 C 109.105469 87.597656 109.464844 87.597656 109.824219 87.527344 L 120.914063 87.527344 C 121.5625 87.527344 121.847656 87.816406 121.847656 88.464844 Z M 169.871094 68.160156 L 169.800781 68.664063 C 169.800781 69.527344 169.367188 69.960938 168.433594 69.960938 L 149.210938 69.960938 L 149.210938 73.558594 C 149.210938 74.351563 149.714844 74.925781 150.648438 75.285156 C 151.585938 75.71875 152.808594 75.933594 154.320313 75.933594 L 168.433594 75.933594 C 169.367188 75.933594 169.800781 76.367188 169.800781 77.304688 L 169.800781 77.808594 C 169.800781 78.742188 169.367188 79.175781 168.433594 79.175781 L 154.105469 79.175781 C 153.601563 79.175781 153.023438 79.175781 152.449219 79.101563 C 151.367188 78.960938 150.433594 78.816406 149.570313 78.527344 C 148.703125 78.238281 147.914063 77.949219 147.265625 77.519531 C 145.898438 76.511719 145.175781 75.285156 145.175781 73.703125 L 145.175781 62.902344 C 145.175781 61.824219 145.535156 60.816406 146.257813 60.023438 C 146.832031 59.304688 147.695313 58.726563 148.777344 58.296875 C 149.855469 57.863281 151.226563 57.574219 152.808594 57.359375 C 153.242188 57.359375 153.816406 57.285156 154.464844 57.285156 L 168.433594 57.285156 C 169.367188 57.285156 169.800781 57.789063 169.800781 58.726563 L 169.800781 59.160156 C 169.800781 60.09375 169.367188 60.527344 168.433594 60.527344 L 154.320313 60.527344 L 153.242188 60.597656 C 152.015625 60.597656 151.007813 60.816406 150.289063 61.246094 C 149.496094 61.605469 149.136719 62.183594 149.136719 62.902344 L 149.136719 66.71875 L 168.433594 66.71875 C 169.367188 66.71875 169.871094 67.222656 169.871094 68.160156 M 142.871094 59.160156 C 142.871094 60.09375 142.441406 60.527344 141.503906 60.527344 L 132.722656 60.527344 L 132.722656 77.808594 C 132.722656 78.742188 132.21875 79.175781 131.28125 79.175781 L 130.128906 79.175781 C 129.191406 79.175781 128.6875 78.742188 128.6875 77.808594 L 128.6875 60.527344 L 119.90625 60.527344 C 118.96875 60.527344 118.464844 60.09375 118.464844 59.160156 L 118.464844 58.726563 C 118.464844 57.789063 118.96875 57.285156 119.90625 57.285156 L 141.503906 57.285156 C 142.441406 57.285156 142.871094 57.789063 142.871094 58.726563 Z M 115.800781 77.808594 C 115.800781 78.742188 115.296875 79.175781 114.359375 79.175781 L 113.210938 79.175781 C 112.273438 79.175781 111.769531 78.742188 111.769531 77.808594 L 111.769531 58.726563 C 111.769531 57.789063 112.273438 57.285156 113.210938 57.285156 L 114.359375 57.285156 C 115.296875 57.285156 115.800781 57.789063 115.800781 58.726563 Z M 107.304688 73.773438 C 107.304688 75 107.160156 75.933594 106.730469 76.582031 C 106.226563 77.445313 105.289063 78.09375 103.992188 78.527344 C 102.480469 78.960938 100.394531 79.175781 97.730469 79.175781 L 83.90625 79.175781 C 82.96875 79.175781 82.535156 78.742188 82.535156 77.808594 L 82.535156 77.304688 C 82.535156 76.367188 82.96875 75.933594 83.90625 75.933594 L 97.730469 75.933594 C 99.816406 75.933594 101.328125 75.71875 102.265625 75.285156 C 102.984375 74.925781 103.34375 74.421875 103.34375 73.847656 L 103.34375 71.976563 C 103.34375 71.183594 102.839844 70.605469 101.976563 70.246094 C 101.039063 69.886719 99.671875 69.742188 97.800781 69.742188 L 92.546875 69.742188 C 89.089844 69.742188 86.496094 69.3125 84.839844 68.375 C 83.257813 67.511719 82.464844 66.214844 82.464844 64.488281 L 82.464844 62.902344 C 82.464844 61.03125 83.113281 59.664063 84.410156 58.800781 C 85.921875 57.789063 88.511719 57.285156 92.113281 57.285156 L 105.792969 57.285156 C 106.730469 57.285156 107.234375 57.789063 107.234375 58.726563 L 107.234375 59.160156 C 107.234375 60.09375 106.730469 60.527344 105.792969 60.527344 L 92.113281 60.527344 C 90.3125 60.527344 89.015625 60.742188 88.082031 61.03125 C 87 61.464844 86.496094 62.039063 86.496094 62.832031 L 86.496094 64.34375 C 86.496094 65.136719 86.929688 65.640625 87.863281 65.925781 C 88.800781 66.285156 90.3125 66.429688 92.472656 66.429688 L 97.800781 66.429688 C 100.824219 66.429688 103.128906 66.863281 104.855469 67.871094 C 106.511719 68.878906 107.304688 70.175781 107.304688 71.832031 Z M 79.730469 59.734375 L 68.929688 70.03125 L 68.929688 77.808594 C 68.929688 78.742188 68.496094 79.175781 67.5625 79.175781 L 66.335938 79.175781 C 65.402344 79.175781 64.898438 78.742188 64.898438 77.808594 L 64.898438 70.03125 L 54.097656 59.734375 C 53.664063 59.304688 53.519531 58.871094 53.519531 58.4375 C 53.519531 58.152344 53.664063 57.863281 53.953125 57.648438 C 54.242188 57.429688 54.601563 57.285156 55.105469 57.285156 L 56.328125 57.285156 C 56.472656 57.285156 56.617188 57.359375 56.832031 57.429688 C 57.050781 57.503906 57.191406 57.574219 57.335938 57.71875 L 66.914063 66.863281 L 76.5625 57.71875 C 76.632813 57.574219 76.777344 57.503906 76.992188 57.429688 C 77.210938 57.359375 77.351563 57.285156 77.496094 57.285156 L 78.722656 57.285156 C 79.226563 57.285156 79.65625 57.429688 79.945313 57.648438 C 80.234375 57.863281 80.378906 58.152344 80.378906 58.4375 C 80.378906 58.871094 80.160156 59.304688 79.730469 59.734375 M 50.855469 77.808594 C 50.855469 78.742188 50.425781 79.175781 49.488281 79.175781 L 48.265625 79.175781 C 47.328125 79.175781 46.898438 78.742188 46.898438 77.808594 L 46.898438 63.625 L 35.089844 78.167969 C 34.800781 78.527344 34.441406 78.816406 34.007813 79.03125 C 33.503906 79.175781 33.074219 79.320313 32.570313 79.320313 C 32.066406 79.320313 31.632813 79.175781 31.203125 79.03125 C 30.699219 78.816406 30.335938 78.527344 29.976563 78.167969 L 18.023438 63.550781 L 18.023438 77.808594 C 18.023438 78.742188 17.519531 79.175781 16.585938 79.175781 L 15.433594 79.175781 C 14.496094 79.175781 13.992188 78.742188 13.992188 77.808594 L 13.992188 59.375 C 13.992188 58.800781 14.210938 58.296875 14.714844 57.933594 C 15.144531 57.503906 15.722656 57.285156 16.367188 57.285156 C 16.730469 57.285156 17.160156 57.429688 17.519531 57.574219 C 17.882813 57.789063 18.242188 58.007813 18.601563 58.4375 L 32.640625 75 L 46.320313 58.367188 C 46.535156 58.078125 46.898438 57.863281 47.328125 57.648438 C 47.761719 57.503906 48.191406 57.359375 48.699219 57.359375 C 49.273438 57.359375 49.847656 57.574219 50.210938 57.863281 C 50.640625 58.222656 50.855469 58.800781 50.855469 59.589844 "/>
</g>
</svg>
